<?xml version="1.0" encoding="UTF-8" standalone="no"?><!DOCTYPE svg PUBLIC "-//W3C//DTD SVG 1.1//EN" "http://www.w3.org/Graphics/SVG/1.1/DTD/svg11.dtd"><svg width="100%" height="100%" viewBox="0 0 430 108" version="1.1" xmlns="http://www.w3.org/2000/svg" xmlns:xlink="http://www.w3.org/1999/xlink" xml:space="preserve" xmlns:serif="http://www.serif.com/" style="fill-rule:evenodd;clip-rule:evenodd;stroke-linejoin:round;stroke-miterlimit:2;"><g><path d="M376.425,1.465c29.218,0 52.903,23.685 52.903,52.903c0,29.218 -23.685,52.903 -52.903,52.903c-29.218,0 -52.903,-23.685 -52.903,-52.903c0,-29.218 23.685,-52.903 52.903,-52.903Z" style="fill:#fff;fill-rule:nonzero;"/><path d="M376.425,14.304c22.127,0 40.064,17.937 40.064,40.064c0,22.127 -17.937,40.065 -40.064,40.065c-22.127,0 -40.064,-17.938 -40.064,-40.065c0,-22.127 17.937,-40.064 40.064,-40.064Z" style="fill:url(#_Linear1);"/><path d="M390.539,16.854l12.292,67.654c0.729,-0.638 1.457,-1.366 2.095,-2.003l-11.655,-64.468c-0.911,-0.455 -1.822,-0.819 -2.732,-1.183Zm-4.553,49.352l-0.273,-1.549l-18.667,0l-4.917,27.135c0.911,0.364 1.912,0.638 2.914,1.002l4.826,-26.588l16.117,0Zm-32.689,0l0.273,-1.549l-15.935,0c2.095,7.74 6.374,14.66 12.384,19.851l0.182,-1.002c-4.644,-4.825 -8.013,-10.835 -9.743,-17.3l12.839,0Zm24.585,-44.709l-1.274,-7.284l-0.456,0l-6.92,38.243l3.095,0l5.555,-30.959Zm-38.699,30.959l-2.913,0c0.728,-16.026 10.926,-29.957 25.859,-35.602l-0.546,3.004c-12.657,6.101 -21.216,18.576 -22.4,32.598Z" style="fill:url(#_Linear2);"/><path d="M402.831,84.508l-12.201,-67.746c20.67,7.831 31.141,30.868 23.401,51.629c-2.459,6.283 -6.283,11.838 -11.2,16.117Zm-26.406,9.925c-4.826,0 -9.651,-0.911 -14.204,-2.641l4.917,-27.135l18.666,0l4.917,27.135c-4.644,1.821 -9.47,2.732 -14.296,2.641Zm-40.064,-41.977c0.728,-16.026 10.926,-29.957 25.86,-35.602l-6.466,35.602l-19.394,0Zm13.658,32.052c-6.01,-5.281 -10.289,-12.201 -12.384,-19.851l15.935,0l-3.551,19.851Zm26.133,-70.204l0.456,0l6.92,38.243l-14.296,0l6.92,-38.243Zm0.182,-12.02c-28.773,0 -52.084,23.311 -52.084,52.175c0,28.865 23.311,52.084 52.175,52.084c28.773,0 52.084,-23.31 52.084,-52.084c0,-28.864 -23.311,-52.175 -52.175,-52.175c0.091,0 0,0 0,0Z" style="fill:url(#_Radial3);"/><path d="M376.334,106.452c-28.773,0 -52.084,-23.31 -52.084,-52.175c0,-28.864 23.311,-52.084 52.175,-52.084c28.773,0 52.084,23.31 52.084,52.084c0,28.865 -23.311,52.175 -52.175,52.175c0.091,0 0.091,0 0,0Zm0,-105.716c-29.593,0 -53.632,24.039 -53.632,53.632c0,29.594 24.039,53.632 53.632,53.632c29.593,0 53.632,-24.038 53.632,-53.632c0,-29.593 -23.947,-53.632 -53.632,-53.632Z" style="fill:url(#_Linear4);"/><path d="M337.635,64.657l-0.729,0c2.095,8.014 6.648,15.298 12.931,20.67l0.182,-0.819c-6.01,-5.191 -10.38,-12.111 -12.384,-19.851Z" style="fill:#fff;fill-rule:nonzero;"/><path d="M376.334,94.524c-4.826,0 -9.652,-0.911 -14.205,-2.64l-0.091,0.728c9.288,3.46 19.487,3.46 28.774,0l-0.091,-0.728c-4.644,1.729 -9.47,2.64 -14.387,2.64Z" style="fill:#fff;fill-rule:nonzero;"/><path d="M417.218,54.368c0,-17.118 -10.744,-32.415 -26.771,-38.334l0.183,0.82c20.67,7.739 31.232,30.867 23.401,51.628c-2.367,6.192 -6.192,11.747 -11.2,16.117l0.183,0.819c8.923,-7.83 14.204,-19.121 14.204,-31.05Z" style="fill:#fff;fill-rule:nonzero;"/><path d="M369.141,53.185l14.477,0l-0.09,-0.729l-14.296,0l-0.091,0.729Z" style="fill:#fff;fill-rule:nonzero;"/><path d="M362.221,16.854l0.182,-0.82c-15.48,5.645 -25.952,20.032 -26.771,36.422l0,0.638l20.032,0l0.091,-0.638l-19.485,0c0.819,-15.935 11.017,-29.957 25.951,-35.602Z" style="fill:#fff;fill-rule:nonzero;"/><path d="M419.404,93.34l0.273,0c0,0.547 0.455,0.911 1.001,0.911l0.092,0c0.455,0 0.91,-0.364 1.001,-0.819c0,-0.547 -0.273,-0.729 -1.001,-0.82c-0.729,-0.091 -1.184,-0.364 -1.184,-1.002c0,-0.547 0.546,-1.002 1.092,-1.002l0.092,0c0.636,-0.09 1.183,0.365 1.183,0.912l-0.273,0c-0.091,-0.457 -0.455,-0.729 -0.91,-0.729c-0.456,-0.092 -0.82,0.182 -0.911,0.637l0,0.092c0,0.455 0.182,0.636 1.002,0.728c0.819,0.091 1.274,0.364 1.274,1.092c0,0.638 -0.546,1.093 -1.184,1.093l-0.09,0c-0.638,0.091 -1.367,-0.365 -1.457,-1.001l0,-0.092Z" style="fill:#222a61;fill-rule:nonzero;"/><path d="M423.046,90.608l0.455,0l1.366,3.279l1.366,-3.279l0.455,0l0,3.825l-0.273,0l0,-3.46l-1.457,3.46l-0.091,0l-1.457,-3.46l0,3.46l-0.273,0l0,-3.825l-0.091,0Z" style="fill:#222a61;fill-rule:nonzero;"/><path d="M19.212,45.627l-5.645,17.665l11.2,0l-5.464,-17.665l-0.091,0Zm3.369,-12.839l16.3,47.713l-8.651,0l-3.096,-9.742l-15.935,0l-3.095,9.651l-8.104,0l16.208,-47.713l6.373,0.091Z" style="fill:#222a61;fill-rule:nonzero;"/><path d="M49.716,43.26l0,23.037c0,3.096 0.273,4.643 1.184,5.827c0.91,1.184 2.64,1.73 4.917,1.73c2.276,0 4.006,-0.546 4.917,-1.73c0.91,-1.184 1.184,-2.731 1.184,-5.827l0,-23.037l7.83,0l0,24.13c0.092,8.922 -4.917,13.475 -13.84,13.475c-8.923,0 -14.023,-4.553 -14.023,-13.475l0,-24.13l7.831,0Z" style="fill:#222a61;fill-rule:nonzero;"/><path d="M88.142,34.427l0,8.741l7.83,0l0,6.101l-7.83,0l0,17.392c0,2.914 0.273,4.462 1.274,5.555c0.82,1.092 2.368,1.548 4.644,1.548c0.547,0 1.184,0 1.73,-0.092l0,6.921c-1.001,0.091 -2.003,0.181 -3.005,0.181c-4.461,0 -7.557,-1.183 -9.469,-3.46c-2.185,-2.458 -3.096,-5.462 -3.096,-10.744l0,-17.21l-5.737,0l0,-6.1l5.737,0l0,-8.833l7.922,0Z" style="fill:#222a61;fill-rule:nonzero;"/><path d="M108.357,66.206c0,3.096 0.273,4.644 1.183,5.827c0.911,1.184 2.641,1.731 5.009,1.731c2.367,0 4.006,-0.547 5.007,-1.731c1.002,-1.183 1.184,-2.731 1.184,-5.827l0,-8.742c0,-3.005 -0.273,-4.644 -1.184,-5.827c-0.91,-1.184 -2.64,-1.73 -5.007,-1.73c-2.368,0 -4.007,0.546 -5.009,1.73c-1.001,1.183 -1.183,2.822 -1.183,5.827l0,8.742Zm-7.74,-9.834c0,-9.015 5.008,-13.568 14.022,-13.568c9.015,0 14.023,4.553 14.023,13.568l0,11.018c0,8.922 -5.008,13.567 -14.023,13.567c-9.014,0 -14.022,-4.553 -14.022,-13.567l0,-11.018Z" style="fill:#222a61;fill-rule:nonzero;"/><path d="M145.872,34.427l0,8.741l7.83,0l0,6.101l-7.83,0l0,17.392c0,2.914 0.273,4.462 1.274,5.555c0.82,1.092 2.368,1.548 4.644,1.548c0.547,0 1.184,0 1.73,-0.092l0,6.921c-1.001,0.091 -2.003,0.181 -3.005,0.181c-4.461,0 -7.557,-1.183 -9.469,-3.46c-2.186,-2.458 -3.096,-5.462 -3.096,-10.744l0,-17.21l-5.737,0l0,-6.1l5.737,0l0,-8.833l7.922,0Z" style="fill:#222a61;fill-rule:nonzero;"/><path d="M167.725,43.26l0.182,4.279c1.821,-3.096 5.19,-4.826 8.742,-4.735c0.91,0 1.82,0.092 2.731,0.182l0,7.376c-0.637,-0.091 -1.366,-0.091 -2.003,-0.091c-3.096,0 -5.555,0.729 -7.102,2.185c-1.366,1.457 -2.004,3.369 -2.004,6.557l0,21.397l-7.83,0l0,-37.15l7.284,0Z" style="fill:#222a61;fill-rule:nonzero;"/><path d="M191.4,66.024c0,3.369 0.273,4.826 1.457,6.1c1.183,1.093 2.731,1.73 4.37,1.64c1.639,0 3.278,-0.547 4.553,-1.64c1.548,-1.457 2.003,-3.46 2.003,-6.556l0,-7.466c0,-3.096 -0.455,-5.19 -2.003,-6.647c-1.275,-1.093 -2.914,-1.64 -4.553,-1.548c-2.094,0 -3.369,0.455 -4.37,1.548c-1.184,1.183 -1.457,2.822 -1.457,6.191l0,8.378Zm20.214,-22.764l0,37.241l-6.829,0l-0.182,-3.824c-2.095,2.823 -5.373,4.462 -8.833,4.28c-3.278,0.182 -6.465,-1.002 -8.832,-3.187c-2.185,-2.186 -3.278,-5.099 -3.278,-10.199l0,-11.472c0,-5.009 1.183,-8.014 3.278,-10.199c2.458,-2.185 5.554,-3.369 8.832,-3.187c3.734,0 6.829,1.366 8.741,3.915l0.183,-3.46l6.92,0.092Z" style="fill:#222a61;fill-rule:nonzero;"/><path d="M226.911,66.024c0,3.369 0.274,4.826 1.457,6.1c1.184,1.093 2.732,1.73 4.37,1.64c1.64,0 3.279,-0.547 4.554,-1.64c1.548,-1.457 2.003,-3.46 2.003,-6.556l0,-7.466c0,-3.096 -0.455,-5.19 -2.003,-6.647c-1.275,-1.093 -2.914,-1.64 -4.554,-1.548c-2.093,0 -3.368,0.455 -4.37,1.548c-1.183,1.183 -1.457,2.822 -1.457,6.191l0,8.378Zm20.215,-36.605l0,51.082l-6.83,0l-0.272,-3.551c-1.64,2.55 -4.645,4.098 -8.56,4.098c-3.551,0 -6.829,-1.093 -9.015,-3.188c-2.185,-2.093 -3.277,-5.098 -3.277,-10.198l0,-11.563c0,-5.009 1.184,-8.014 3.277,-10.199c2.095,-2.185 5.555,-3.187 9.106,-3.187c2.914,-0.091 5.645,1.002 7.831,2.914l0,-16.208l7.74,0Z" style="fill:#222a61;fill-rule:nonzero;"/><path d="M262.423,58.557l11.929,0l0,-1.184c0,-4.553 -0.729,-7.558 -5.919,-7.558c-4.917,0 -5.919,2.641 -5.919,7.558l-0.091,1.184Zm-7.831,-2.185c0,-9.015 4.826,-13.568 13.75,-13.568c8.923,0 13.749,4.553 13.749,13.568l0,6.282c0.091,1.002 -0.637,1.912 -1.639,2.095l-0.455,0l-17.574,0l0,1.73c0,4.461 0.638,7.466 5.919,7.466c4.098,0 5.919,-2.003 5.919,-5.645l7.648,0l0,0.091c0,8.195 -5.099,12.474 -13.567,12.474c-8.924,0 -13.75,-4.553 -13.75,-13.567l0,-10.926Z" style="fill:#222a61;fill-rule:nonzero;"/><path d="M296.842,43.26l0.183,4.279c1.821,-3.096 5.19,-4.826 8.741,-4.735c0.91,0 1.821,0.092 2.731,0.182l0,7.376c-0.636,-0.091 -1.365,-0.091 -2.003,-0.091c-3.095,0 -5.554,0.729 -7.102,2.185c-1.366,1.457 -2.003,3.369 -2.003,6.557l0,21.397l-7.831,0l0,-37.15l7.284,0Z" style="fill:#222a61;fill-rule:nonzero;"/></g><defs><linearGradient id="_Linear1" x1="0" y1="0" x2="1" y2="0" gradientUnits="userSpaceOnUse" gradientTransform="matrix(56.6599,56.6599,-56.6599,56.6599,348.095,26.038)"><stop offset="0" style="stop-color:#f89c1e;stop-opacity:1"/><stop offset="1" style="stop-color:#f06623;stop-opacity:1"/></linearGradient><linearGradient id="_Linear2" x1="0" y1="0" x2="1" y2="0" gradientUnits="userSpaceOnUse" gradientTransform="matrix(56.7422,56.7421,-56.7421,56.7422,347.122,26.823)"><stop offset="0" style="stop-color:#de8026;stop-opacity:1"/><stop offset="1" style="stop-color:#d14f27;stop-opacity:1"/></linearGradient><radialGradient id="_Radial3" cx="0" cy="0" r="1" gradientUnits="userSpaceOnUse" gradientTransform="matrix(103.922,0,0,103.922,338.255,18.8652)"><stop offset="0" style="stop-color:#fff;stop-opacity:1"/><stop offset="1" style="stop-color:#dbdddd;stop-opacity:1"/></radialGradient><linearGradient id="_Linear4" x1="0" y1="0" x2="1" y2="0" gradientUnits="userSpaceOnUse" gradientTransform="matrix(75.8314,75.8223,-75.8223,75.8314,338.427,16.4483)"><stop offset="0" style="stop-color:#dbdddd;stop-opacity:1"/><stop offset="0.5" style="stop-color:#c1c2c3;stop-opacity:1"/><stop offset="0.8" style="stop-color:#969799;stop-opacity:1"/><stop offset="1" style="stop-color:#6d6e72;stop-opacity:1"/></linearGradient></defs></svg>