<?xml version="1.0" encoding="UTF-8" standalone="no"?><!DOCTYPE svg PUBLIC "-//W3C//DTD SVG 1.1//EN" "http://www.w3.org/Graphics/SVG/1.1/DTD/svg11.dtd"><svg width="100%" height="100%" viewBox="0 0 431 67" version="1.1" xmlns="http://www.w3.org/2000/svg" xmlns:xlink="http://www.w3.org/1999/xlink" xml:space="preserve" xmlns:serif="http://www.serif.com/" style="fill-rule:evenodd;clip-rule:evenodd;stroke-linejoin:round;stroke-miterlimit:2;"><g><path d="M361.449,47.576c0.09,6.087 -4.654,11.011 -10.741,11.189l-0.448,0c-6.623,0 -10.562,-4.206 -10.562,-11.368l0,-28.554l-8.772,0l0,28.196c0,12.085 7.161,19.872 18.261,19.872c4.744,0.089 9.219,-1.79 12.621,-5.102l0,4.028l8.682,0l0,-46.994l-8.951,0l0,28.733l-0.09,0Z" style="fill:#468fcd;fill-rule:nonzero;"/><path d="M307.026,17.68c-4.744,-0.09 -9.309,1.79 -12.621,5.191l0,-4.028l-8.593,0l0,46.994l8.861,0l0,-28.555c-0.179,-5.997 4.475,-11.099 10.562,-11.278l0.717,0c6.444,0 10.473,4.386 10.473,11.458l0,4.027l8.772,0l0,-3.759c0.089,-12.173 -7.072,-20.05 -18.171,-20.05Z" style="fill:#468fcd;fill-rule:nonzero;"/><path d="M265.313,47.576c0.09,6.087 -4.654,11.011 -10.741,11.189l-0.448,0c-6.623,0 -10.561,-4.206 -10.561,-11.368l0,-28.554l-8.773,0l0,28.196c0,12.085 7.161,19.872 18.26,19.872c4.744,0.089 9.22,-1.79 12.622,-5.102l0,4.028l8.593,0l0,-46.994l-8.862,0l0,28.733l-0.09,0Z" style="fill:#468fcd;fill-rule:nonzero;"/><path d="M398.238,36.119c-9.308,-1.432 -10.92,-2.596 -10.92,-5.192c0,-3.222 4.296,-5.728 9.667,-5.728c5.64,0 9.399,2.506 10.294,6.802l0.09,0.537l8.951,0l-0.09,-0.716c-0.984,-9.22 -8.414,-14.859 -19.334,-14.859c-12.8,0 -18.619,7.34 -18.619,14.233c0,9.04 7.072,11.905 18.44,13.516c10.921,1.432 11.815,3.67 11.815,6.445c0,3.402 -3.67,6.803 -10.741,6.803c-6.444,0 -11.188,-3.133 -12.084,-8.056l-0.09,-0.537l-8.951,0l0.09,0.806c1.253,9.846 9.488,16.201 21.035,16.201c11.547,0 19.335,-6.266 19.335,-15.575c0.179,-10.831 -8.146,-12.98 -18.888,-14.68Z" style="fill:#468fcd;fill-rule:nonzero;"/><path d="M198.806,22.602c1.928,0 3.491,1.563 3.491,3.492c0,1.927 -1.563,3.49 -3.491,3.49c-1.928,0 -3.491,-1.563 -3.491,-3.49c0,-1.929 1.563,-3.492 3.491,-3.492Z" style="fill:#468fcd;fill-rule:nonzero;"/><path d="M212.233,22.602c1.928,0 3.491,1.563 3.491,3.492c0,1.927 -1.563,3.49 -3.491,3.49c-1.928,0 -3.491,-1.563 -3.491,-3.49c0,-1.929 1.563,-3.492 3.491,-3.492Z" style="fill:#468fcd;fill-rule:nonzero;"/><path d="M196.031,35.045l0,7.787l19.603,0l0.269,-0.358c0.537,-1.253 0.985,-2.506 1.163,-3.849c0.269,-1.163 0.448,-2.416 0.448,-3.58l-21.483,0Z" style="fill:#468fcd;fill-rule:nonzero;"/><path d="M221.005,35.045c-0.447,13.068 -9.846,23.005 -21.841,23.005c-12.532,0 -22.736,-10.831 -22.736,-24.079c0,-13.248 10.204,-24.079 22.736,-24.079c8.414,0 15.665,4.834 19.424,12.89l0.18,0.358l9.488,0l-0.269,-0.895c-4.475,-12.89 -15.754,-21.304 -28.823,-21.304c-17.455,0 -31.598,14.769 -31.598,32.94c0,18.171 14.143,33.03 31.598,33.03c7.967,0 15.575,-3.133 21.214,-8.772c5.998,-6.176 9.31,-14.412 9.131,-23.004l-8.504,-0.09Z" style="fill:#468fcd;fill-rule:nonzero;"/><path d="M50.842,45.429c-3.67,8.055 -11.099,12.889 -19.692,12.889c-12.353,0 -22.379,-10.831 -22.379,-24.168c0,-13.338 10.026,-24.169 22.379,-24.169c8.593,-0.179 16.47,4.924 19.692,12.89l0.18,0.448l9.309,0l-0.269,-0.895c-4.118,-12.89 -15.217,-20.946 -28.823,-20.946c-17.276,0 -31.239,14.68 -31.239,32.672c0,17.992 13.963,32.761 31.15,32.761c13.427,0 24.526,-8.056 28.823,-21.035l0.268,-0.896l-9.219,0l-0.18,0.449Z" style="fill:#ef3b39;fill-rule:nonzero;"/><path d="M87.542,58.497c-8.056,0 -14.68,-7.161 -14.68,-16.023c0,-8.951 6.535,-16.202 14.68,-16.202c8.146,0 14.86,7.43 14.86,16.202c0,8.683 -6.804,16.023 -14.86,16.023Zm15.128,-33.567c-3.67,-4.565 -9.22,-7.161 -15.128,-7.25c-13.158,0 -23.541,10.83 -23.541,24.705c0,13.874 10.293,24.615 23.541,24.615c5.908,-0.089 11.368,-2.774 15.128,-7.34l0,6.177l8.593,0l0,-46.994l-8.593,0l0,6.087Z" style="fill:#ef3b39;fill-rule:nonzero;"/><path d="M144.114,17.68c-4.744,-0.09 -9.309,1.79 -12.621,5.191l0,-4.028l-8.593,0l0,46.994l8.862,0l0,-28.555c-0.179,-5.997 4.475,-11.099 10.562,-11.278l0.716,0c6.445,0 10.473,4.386 10.473,11.458l0,4.027l8.772,0l0,-3.759c0.09,-12.173 -7.071,-20.05 -18.171,-20.05Z" style="fill:#ef3b39;fill-rule:nonzero;"/><path d="M21.303,26.272c1.829,0 3.312,1.483 3.312,3.312c0,1.829 -1.483,3.312 -3.312,3.312c-1.829,0 -3.312,-1.483 -3.312,-3.312c0,-1.829 1.483,-3.312 3.312,-3.312Z" style="fill:#ef3b39;fill-rule:nonzero;"/><path d="M42.786,26.272c1.829,0 3.312,1.483 3.312,3.312c0,1.829 -1.483,3.312 -3.312,3.312c-1.829,0 -3.312,-1.483 -3.312,-3.312c0,-1.829 1.483,-3.312 3.312,-3.312Z" style="fill:#ef3b39;fill-rule:nonzero;"/><rect x="28.285" y="26.989" width="5.819" height="16.917" style="fill:#ef3b39;fill-rule:nonzero;"/><path d="M425.54,20.992l0.626,0c0.18,0 0.358,-0.09 0.537,-0.09c0.18,-0.09 0.269,-0.179 0.359,-0.269c0.089,-0.179 0.178,-0.358 0.178,-0.537c0,-0.179 0,-0.358 -0.089,-0.537c-0.089,-0.089 -0.179,-0.179 -0.268,-0.269c-0.18,-0.089 -0.269,-0.089 -0.448,-0.178l-0.448,0l-1.253,0l0,1.88l0.806,0Zm0.357,-2.775c0.538,-0.09 1.165,0.089 1.612,0.447c0.358,0.358 0.537,0.806 0.537,1.343c0,0.447 -0.179,0.895 -0.447,1.253c-0.359,0.268 -0.716,0.447 -1.164,0.447l1.791,2.775l-1.075,0l-1.701,-2.685l-0.984,0l0,2.685l-0.896,0l0,-6.265l2.327,0Zm-4.385,4.923c0.178,0.537 0.537,0.984 0.895,1.432c1.7,1.7 4.386,1.79 6.176,0.09l0.09,-0.09c0.357,-0.448 0.716,-0.895 0.894,-1.432c0.269,-0.627 0.359,-1.253 0.359,-1.88c0,-0.627 -0.09,-1.164 -0.359,-1.79c-0.447,-1.075 -1.253,-1.88 -2.327,-2.417c-0.537,-0.269 -1.163,-0.358 -1.7,-0.358c-1.79,0 -3.401,1.074 -4.028,2.775c-0.269,0.537 -0.359,1.163 -0.359,1.79c0.09,0.627 0.18,1.253 0.359,1.88Zm-0.806,-3.939c0.269,-0.626 0.627,-1.163 1.164,-1.701c0.537,-0.447 1.074,-0.895 1.7,-1.074c2.686,-1.163 5.819,0.09 6.983,2.775c0.268,0.627 0.447,1.343 0.447,2.059c0,0.716 -0.179,1.432 -0.447,2.148c-0.269,0.627 -0.627,1.254 -1.164,1.701c-0.448,0.448 -1.075,0.895 -1.701,1.074c-1.342,0.537 -2.775,0.537 -4.118,0c-0.626,-0.268 -1.253,-0.626 -1.7,-1.074c-0.448,-0.447 -0.895,-1.074 -1.164,-1.701c-0.268,-0.626 -0.447,-1.432 -0.447,-2.148c0,-0.716 0.089,-1.432 0.447,-2.059Z" style="fill:#468fcd;fill-rule:nonzero;"/></g></svg>