<?xml version="1.0" encoding="UTF-8" standalone="no"?><!DOCTYPE svg PUBLIC "-//W3C//DTD SVG 1.1//EN" "http://www.w3.org/Graphics/SVG/1.1/DTD/svg11.dtd"><svg width="100%" height="100%" viewBox="0 0 7300 1153" version="1.1" xmlns="http://www.w3.org/2000/svg" xmlns:xlink="http://www.w3.org/1999/xlink" xml:space="preserve" xmlns:serif="http://www.serif.com/" style="fill-rule:evenodd;clip-rule:evenodd;stroke-linejoin:round;stroke-miterlimit:2;"><g id="Page-2" serif:id="Page 2" transform="matrix(4.16667,0,0,3.0484,0,0)"><rect x="0" y="0" width="1752" height="378" style="fill:none;"/><g id="Secondary-Facebook-Marketplace---Horizontal" serif:id="Secondary Facebook Marketplace - Horizontal" transform="matrix(1,0,0,1.36684,0,-77.036)"><g transform="matrix(1.09873,0,0,1.09873,357.339,155.757)"><path d="M0,81.758L-24.761,81.758L-24.761,0L35.976,0L35.976,20.789L0,20.789L0,35.739L30.135,35.739L30.135,56.531L0,56.531L0,81.758Z" style="fill:rgb(24,119,242);fill-rule:nonzero;"/></g><g transform="matrix(1.09873,0,0,1.09873,433.879,198.874)"><path d="M0,24.879C3.191,24.879 5.684,23.711 7.475,21.376C9.265,19.04 10.16,16.063 10.16,12.441C10.16,8.821 9.265,5.841 7.475,3.506C5.684,1.168 3.191,0 0,0C-3.193,0 -5.686,1.168 -7.477,3.506C-9.268,5.841 -10.163,8.821 -10.163,12.441C-10.163,16.063 -9.268,19.04 -7.477,21.376C-5.686,23.711 -3.193,24.879 0,24.879M32.821,42.516L13.197,42.516L12.847,35.625C10.938,38.351 8.37,40.472 5.139,41.99C1.906,43.509 -1.715,44.267 -5.726,44.267C-11.137,44.267 -15.935,42.886 -20.119,40.121C-24.307,37.359 -27.586,33.582 -29.961,28.793C-32.335,24.005 -33.522,18.555 -33.522,12.441C-33.522,6.329 -32.335,0.879 -29.961,-3.912C-27.586,-8.7 -24.307,-12.475 -20.119,-15.242C-15.935,-18.005 -11.137,-19.388 -5.726,-19.388C-1.715,-19.388 1.906,-18.628 5.139,-17.111C8.37,-15.591 10.938,-13.469 12.847,-10.744L13.197,-17.637L32.821,-17.637L32.821,42.516Z" style="fill:rgb(24,119,242);fill-rule:nonzero;"/></g><g transform="matrix(1.09873,0,0,1.09873,530.334,204.517)"><path d="M0,14.606L9.461,30.255C6.54,32.748 2.812,34.85 -1.725,36.562C-6.26,38.277 -11.058,39.13 -16.118,39.13C-22.388,39.13 -27.983,37.769 -32.909,35.043C-37.835,32.321 -41.718,28.563 -44.561,23.772C-47.403,18.984 -48.824,13.495 -48.824,7.305C-48.824,1.115 -47.403,-4.375 -44.561,-9.164C-41.718,-13.952 -37.835,-17.709 -32.909,-20.438C-27.983,-23.161 -22.388,-24.524 -16.118,-24.524C-11.33,-24.524 -6.765,-23.754 -2.424,-22.218C1.916,-20.678 5.451,-18.801 8.176,-16.581L-1.285,-0.931C-2.843,-2.021 -4.634,-2.953 -6.657,-3.733C-8.684,-4.513 -10.766,-4.901 -12.907,-4.901C-16.84,-4.901 -19.876,-3.733 -22.018,-1.398C-24.159,0.938 -25.229,3.839 -25.229,7.305C-25.229,10.769 -24.159,13.669 -22.018,16.006C-19.876,18.341 -16.84,19.511 -12.907,19.511C-10.572,19.511 -8.323,19.063 -6.162,18.168C-4.001,17.27 -1.947,16.085 0,14.606" style="fill:rgb(24,119,242);fill-rule:nonzero;"/></g><g transform="matrix(1.09873,0,0,1.09873,575.89,229.545)"><path d="M0,-30.951C-2.646,-30.951 -4.926,-30.26 -6.831,-28.876C-8.74,-27.495 -10.123,-25.344 -10.979,-22.425L8.995,-22.425L8.995,-22.89C8.995,-25.305 8.166,-27.252 6.513,-28.731C4.856,-30.211 2.686,-30.951 0,-30.951M22.018,-6.422L30.076,8.061C26.649,10.671 22.376,12.702 17.257,14.164C12.138,15.623 7.067,16.352 2.043,16.352C-4.808,16.352 -10.783,14.99 -15.886,12.265C-20.985,9.542 -24.937,5.784 -27.741,0.993C-30.542,-3.795 -31.945,-9.284 -31.945,-15.473C-31.945,-21.664 -30.61,-27.154 -27.944,-31.942C-25.278,-36.73 -21.55,-40.488 -16.761,-43.217C-11.971,-45.939 -6.385,-47.303 0,-47.303C9.461,-47.303 16.801,-44.443 22.018,-38.718C27.235,-32.995 29.843,-24.878 29.843,-14.364L29.843,-9.809L-10.861,-9.809C-9.812,-7.045 -7.982,-4.817 -5.372,-3.122C-2.765,-1.43 0.505,-0.584 4.439,-0.584C7.359,-0.584 10.229,-1.05 13.053,-1.984C15.876,-2.919 18.863,-4.398 22.018,-6.422" style="fill:rgb(24,119,242);fill-rule:nonzero;"/></g><g transform="matrix(1.09873,0,0,1.09873,652.981,169.616)"><path d="M0,51.508C3.19,51.508 5.683,50.34 7.477,48.005C9.267,45.669 10.162,42.692 10.162,39.07C10.162,35.45 9.267,32.47 7.477,30.135C5.683,27.797 3.19,26.629 0,26.629C-3.191,26.629 -5.684,27.797 -7.475,30.135C-9.266,32.47 -10.161,35.45 -10.161,39.07C-10.161,42.692 -9.266,45.669 -7.475,48.005C-5.684,50.34 -3.191,51.508 0,51.508M-13.197,69.145L-32.821,69.145L-32.821,-17.289L-9.694,-19.388L-9.694,12.789C-5.763,9.091 -0.624,7.241 5.723,7.241C11.134,7.241 15.934,8.624 20.119,11.387C24.304,14.154 27.583,17.929 29.96,22.717C32.335,27.508 33.521,32.958 33.521,39.07C33.521,45.184 32.335,50.634 29.96,55.422C27.583,60.211 24.304,63.988 20.119,66.75C15.934,69.515 11.134,70.896 5.723,70.896C1.712,70.896 -1.909,70.138 -5.14,68.619C-8.372,67.101 -10.94,64.98 -12.85,62.254L-13.197,69.145Z" style="fill:rgb(24,119,242);fill-rule:nonzero;"/></g><g transform="matrix(1.09873,0,0,1.09873,730.186,198.874)"><path d="M0,24.879C3.191,24.879 5.684,23.711 7.475,21.376C9.265,19.04 10.163,16.063 10.163,12.441C10.163,8.821 9.265,5.841 7.475,3.506C5.684,1.168 3.191,0 0,0C-3.193,0 -5.686,1.168 -7.475,3.506C-9.268,5.841 -10.163,8.821 -10.163,12.441C-10.163,16.063 -9.268,19.04 -7.475,21.376C-5.686,23.711 -3.193,24.879 0,24.879M0,44.267C-6.618,44.267 -12.449,42.905 -17.49,40.18C-22.533,37.457 -26.465,33.699 -29.289,28.908C-32.112,24.12 -33.522,18.631 -33.522,12.441C-33.522,6.251 -32.112,0.761 -29.289,-4.027C-26.465,-8.815 -22.533,-12.573 -17.49,-15.302C-12.449,-18.024 -6.618,-19.388 0,-19.388C6.618,-19.388 12.449,-18.024 17.492,-15.302C22.533,-12.573 26.465,-8.815 29.289,-4.027C32.109,0.761 33.522,6.251 33.522,12.441C33.522,18.631 32.109,24.12 29.289,28.908C26.465,33.699 22.533,37.457 17.492,40.18C12.449,42.905 6.618,44.267 0,44.267" style="fill:rgb(24,119,242);fill-rule:nonzero;"/></g><g transform="matrix(1.09873,0,0,1.09873,807.133,198.874)"><path d="M0,24.879C3.191,24.879 5.684,23.711 7.475,21.376C9.266,19.04 10.163,16.063 10.163,12.441C10.163,8.821 9.266,5.841 7.475,3.506C5.684,1.168 3.191,0 0,0C-3.193,0 -5.686,1.168 -7.474,3.506C-9.267,5.841 -10.162,8.821 -10.162,12.441C-10.162,16.063 -9.267,19.04 -7.474,21.376C-5.686,23.711 -3.193,24.879 0,24.879M0,44.267C-6.618,44.267 -12.448,42.905 -17.489,40.18C-22.533,37.457 -26.465,33.699 -29.288,28.908C-32.111,24.12 -33.522,18.631 -33.522,12.441C-33.522,6.251 -32.111,0.761 -29.288,-4.027C-26.465,-8.815 -22.533,-12.573 -17.489,-15.302C-12.448,-18.024 -6.618,-19.388 0,-19.388C6.618,-19.388 12.449,-18.024 17.492,-15.302C22.533,-12.573 26.466,-8.815 29.289,-4.027C32.109,0.761 33.522,6.251 33.522,12.441C33.522,18.631 32.109,24.12 29.289,28.908C26.466,33.699 22.533,37.457 17.492,40.18C12.449,42.905 6.618,44.267 0,44.267" style="fill:rgb(24,119,242);fill-rule:nonzero;"/></g><g transform="matrix(1.09873,0,0,1.09873,876.125,148.313)"><path d="M0,88.533L-23.127,88.533L-23.127,2.099L0,0L0,53.026L17.053,28.381L41.58,28.381L22.016,55.83L45.552,88.533L18.805,88.533L0,61.437L0,88.533Z" style="fill:rgb(24,119,242);fill-rule:nonzero;"/></g><g transform="matrix(1.09873,0,0,1.09873,1067.34,155.757)"><path d="M0,81.758L-23.593,81.758L-23.593,33.87L-39.594,70.079L-56.181,70.079L-72.182,33.87L-72.182,81.758L-95.776,81.758L-95.776,0L-67.977,0L-47.595,45.667L-27.213,0L0,0L0,81.758Z" style="fill:rgb(24,119,242);fill-rule:nonzero;"/></g><g transform="matrix(1.09873,0,0,1.09873,1112.8,198.874)"><path d="M0,24.879C3.191,24.879 5.684,23.711 7.475,21.376C9.265,19.04 10.16,16.063 10.16,12.441C10.16,8.821 9.265,5.841 7.475,3.506C5.684,1.168 3.191,0 0,0C-3.194,0 -5.687,1.168 -7.477,3.506C-9.268,5.841 -10.163,8.821 -10.163,12.441C-10.163,16.063 -9.268,19.04 -7.477,21.376C-5.687,23.711 -3.194,24.879 0,24.879M32.82,42.516L13.197,42.516L12.846,35.625C10.938,38.351 8.369,40.472 5.139,41.99C1.906,43.509 -1.715,44.267 -5.726,44.267C-11.137,44.267 -15.935,42.886 -20.119,40.121C-24.307,37.359 -27.586,33.582 -29.961,28.793C-32.335,24.005 -33.522,18.555 -33.522,12.441C-33.522,6.329 -32.335,0.879 -29.961,-3.912C-27.586,-8.7 -24.307,-12.475 -20.119,-15.242C-15.935,-18.005 -11.137,-19.388 -5.726,-19.388C-1.715,-19.388 1.906,-18.628 5.139,-17.111C8.369,-15.591 10.938,-13.469 12.846,-10.744L13.197,-17.637L32.82,-17.637L32.82,42.516Z" style="fill:rgb(24,119,242);fill-rule:nonzero;"/></g><g transform="matrix(1.09873,0,0,1.09873,1184.48,178.213)"><path d="M0,61.32L-23.127,61.32L-23.127,1.168L-3.503,1.168L-2.978,11.563C-1.305,8.372 1.266,5.647 4.732,3.387C8.195,1.129 11.993,0 16.119,0C17.208,0 18.358,0.069 19.565,0.206C20.771,0.341 21.608,0.466 22.077,0.584L22.077,20.909C21.375,20.792 20.596,20.704 19.739,20.644C18.883,20.586 18.105,20.556 17.404,20.556C11.406,20.556 7.008,22.337 4.204,25.901C1.4,29.463 0,33.989 0,39.478L0,61.32Z" style="fill:rgb(24,119,242);fill-rule:nonzero;"/></g><g transform="matrix(1.09873,0,0,1.09873,1238.47,148.313)"><path d="M0,88.533L-23.127,88.533L-23.127,2.099L0,0L0,53.026L17.053,28.381L41.58,28.381L22.018,55.83L45.552,88.533L18.804,88.533L0,61.437L0,88.533Z" style="fill:rgb(24,119,242);fill-rule:nonzero;"/></g><g transform="matrix(1.09873,0,0,1.09873,1320.23,229.545)"><path d="M0,-30.951C-2.646,-30.951 -4.926,-30.26 -6.831,-28.876C-8.74,-27.495 -10.123,-25.344 -10.979,-22.425L8.995,-22.425L8.995,-22.89C8.995,-25.305 8.166,-27.252 6.513,-28.731C4.857,-30.211 2.687,-30.951 0,-30.951M22.018,-6.422L30.076,8.061C26.649,10.671 22.376,12.702 17.257,14.164C12.138,15.623 7.067,16.352 2.043,16.352C-4.808,16.352 -10.783,14.99 -15.886,12.265C-20.985,9.542 -24.937,5.784 -27.74,0.993C-30.542,-3.795 -31.945,-9.284 -31.945,-15.473C-31.945,-21.664 -30.61,-27.154 -27.944,-31.942C-25.278,-36.73 -21.55,-40.488 -16.761,-43.217C-11.971,-45.939 -6.385,-47.303 0,-47.303C9.461,-47.303 16.801,-44.443 22.018,-38.718C27.235,-32.995 29.843,-24.878 29.843,-14.364L29.843,-9.809L-10.861,-9.809C-9.812,-7.045 -7.981,-4.817 -5.372,-3.122C-2.765,-1.43 0.506,-0.584 4.44,-0.584C7.359,-0.584 10.229,-1.05 13.053,-1.984C15.876,-2.919 18.863,-4.398 22.018,-6.422" style="fill:rgb(24,119,242);fill-rule:nonzero;"/></g><g transform="matrix(1.09873,0,0,1.09873,1408.62,182.573)"><path d="M0,38.198L0,57.121C-1.558,57.351 -3.544,57.548 -5.956,57.704C-8.372,57.856 -10.553,57.935 -12.498,57.935C-21.687,57.935 -28.305,55.875 -32.354,51.746C-36.404,47.618 -38.428,41.389 -38.428,33.056L-38.428,16.357L-48.939,16.357L-48.939,-2.801L-38.428,-2.801L-38.428,-19.737L-15.302,-19.737L-15.302,-2.801L0.233,-2.801L-2.22,16.357L-15.302,16.357L-15.302,30.488C-15.302,33.371 -14.58,35.431 -13.141,36.677C-11.7,37.924 -9.149,38.547 -5.489,38.547C-4.634,38.547 -3.591,38.508 -2.364,38.428C-1.138,38.352 -0.351,38.277 0,38.198" style="fill:rgb(24,119,242);fill-rule:nonzero;"/></g><g transform="matrix(1.09873,0,0,1.09873,1452.48,225.184)"><path d="M0,0.933C3.191,0.933 5.684,-0.235 7.474,-2.57C9.265,-4.906 10.16,-7.883 10.16,-11.505C10.16,-15.125 9.265,-18.105 7.474,-20.44C5.684,-22.778 3.191,-23.946 0,-23.946C-3.194,-23.946 -5.687,-22.778 -7.478,-20.44C-9.268,-18.105 -10.163,-15.125 -10.163,-11.505C-10.163,-7.883 -9.268,-4.906 -7.478,-2.57C-5.687,-0.235 -3.194,0.933 0,0.933M-9.694,44.267L-32.821,44.267L-32.821,-41.583L-13.2,-41.583L-12.849,-34.69C-10.943,-37.415 -8.372,-39.537 -5.14,-41.057C-1.909,-42.574 1.712,-43.334 5.723,-43.334C11.134,-43.334 15.932,-41.951 20.119,-39.188C24.304,-36.421 27.583,-32.646 29.958,-27.858C32.332,-23.067 33.522,-17.617 33.522,-11.505C33.522,-5.391 32.332,0.059 29.958,4.847C27.583,9.636 24.304,13.413 20.119,16.175C15.932,18.94 11.134,20.321 5.723,20.321C-0.623,20.321 -5.763,18.474 -9.694,14.775L-9.694,44.267Z" style="fill:rgb(24,119,242);fill-rule:nonzero;"/></g><g transform="matrix(-1.09873,0,0,1.09873,1496.42,148.313)"><path d="M-23.127,88.533L0,88.533L0,2.099L-23.127,0L-23.127,88.533Z" style="fill:rgb(24,119,242);fill-rule:nonzero;"/></g><g transform="matrix(1.09873,0,0,1.09873,1565.85,198.874)"><path d="M0,24.879C3.194,24.879 5.684,23.711 7.477,21.376C9.268,19.04 10.163,16.063 10.163,12.441C10.163,8.821 9.268,5.841 7.477,3.506C5.684,1.168 3.194,0 0,0C-3.191,0 -5.684,1.168 -7.475,3.506C-9.265,5.841 -10.16,8.821 -10.16,12.441C-10.16,16.063 -9.265,19.04 -7.475,21.376C-5.684,23.711 -3.191,24.879 0,24.879M32.821,42.516L13.199,42.516L12.849,35.625C10.94,38.351 8.372,40.472 5.139,41.99C1.908,43.509 -1.712,44.267 -5.723,44.267C-11.134,44.267 -15.935,42.886 -20.119,40.121C-24.304,37.359 -27.584,33.582 -29.958,28.793C-32.335,24.005 -33.522,18.555 -33.522,12.441C-33.522,6.329 -32.335,0.879 -29.958,-3.912C-27.584,-8.7 -24.304,-12.475 -20.119,-15.242C-15.935,-18.005 -11.134,-19.388 -5.723,-19.388C-1.712,-19.388 1.908,-18.628 5.139,-17.111C8.372,-15.591 10.94,-13.469 12.849,-10.744L13.199,-17.637L32.821,-17.637L32.821,42.516Z" style="fill:rgb(24,119,242);fill-rule:nonzero;"/></g><g transform="matrix(1.09873,0,0,1.09873,1662.3,204.517)"><path d="M0,14.606L9.461,30.255C6.54,32.748 2.812,34.85 -1.722,36.562C-6.26,38.277 -11.058,39.13 -16.118,39.13C-22.388,39.13 -27.983,37.769 -32.909,35.043C-37.835,32.321 -41.718,28.563 -44.561,23.772C-47.401,18.984 -48.824,13.495 -48.824,7.305C-48.824,1.115 -47.401,-4.375 -44.561,-9.164C-41.718,-13.952 -37.835,-17.709 -32.909,-20.438C-27.983,-23.161 -22.388,-24.524 -16.118,-24.524C-11.33,-24.524 -6.765,-23.754 -2.423,-22.218C1.918,-20.678 5.451,-18.801 8.176,-16.581L-1.285,-0.931C-2.843,-2.021 -4.634,-2.953 -6.657,-3.733C-8.684,-4.513 -10.766,-4.901 -12.907,-4.901C-16.84,-4.901 -19.876,-3.733 -22.018,-1.398C-24.159,0.938 -25.229,3.839 -25.229,7.305C-25.229,10.769 -24.159,13.669 -22.018,16.006C-19.876,18.341 -16.84,19.511 -12.907,19.511C-10.569,19.511 -8.322,19.063 -6.162,18.168C-4.001,17.27 -1.947,16.085 0,14.606" style="fill:rgb(24,119,242);fill-rule:nonzero;"/></g><g transform="matrix(1.09873,0,0,1.09873,1707.86,229.545)"><path d="M0,-30.951C-2.646,-30.951 -4.926,-30.26 -6.831,-28.876C-8.74,-27.495 -10.123,-25.344 -10.977,-22.425L8.995,-22.425L8.995,-22.89C8.995,-25.305 8.166,-27.252 6.513,-28.731C4.857,-30.211 2.688,-30.951 0,-30.951M22.018,-6.422L30.078,8.061C26.651,10.671 22.379,12.702 17.259,14.164C12.138,15.623 7.067,16.352 2.046,16.352C-4.808,16.352 -10.783,14.99 -15.883,12.265C-20.985,9.542 -24.937,5.784 -27.738,0.993C-30.542,-3.795 -31.945,-9.284 -31.945,-15.473C-31.945,-21.664 -30.61,-27.154 -27.944,-31.942C-25.278,-36.73 -21.55,-40.488 -16.759,-43.217C-11.971,-45.939 -6.385,-47.303 0,-47.303C9.461,-47.303 16.801,-44.443 22.018,-38.718C27.235,-32.995 29.843,-24.878 29.843,-14.364L29.843,-9.809L-10.861,-9.809C-9.81,-7.045 -7.979,-4.817 -5.372,-3.122C-2.765,-1.43 0.508,-0.584 4.44,-0.584C7.359,-0.584 10.231,-1.05 13.055,-1.984C15.876,-2.919 18.863,-4.398 22.018,-6.422" style="fill:rgb(24,119,242);fill-rule:nonzero;"/></g><g transform="matrix(1.09873,0,0,1.09873,260.913,194.606)"><path d="M0,1.367C0,-60.765 -50.367,-111.133 -112.5,-111.133C-174.632,-111.133 -225,-60.765 -225,1.367C-225,57.519 -183.86,104.06 -130.078,112.5L-130.078,33.887L-158.643,33.887L-158.643,1.367L-130.078,1.367L-130.078,-23.418C-130.078,-51.613 -113.282,-67.188 -87.585,-67.188C-75.276,-67.188 -62.402,-64.99 -62.402,-64.99L-62.402,-37.305L-76.588,-37.305C-90.563,-37.305 -94.922,-28.633 -94.922,-19.737L-94.922,1.367L-63.721,1.367L-68.708,33.887L-94.922,33.887L-94.922,112.5C-41.14,104.06 0,57.519 0,1.367" style="fill:rgb(24,119,242);fill-rule:nonzero;"/></g><g transform="matrix(1.09873,0,0,1.09873,185.421,208.661)"><path d="M0,21.094L4.987,-11.426L-26.214,-11.426L-26.214,-32.529C-26.214,-41.426 -21.855,-50.097 -7.88,-50.097L6.306,-50.097L6.306,-77.783C6.306,-77.783 -6.568,-79.98 -18.877,-79.98C-44.574,-79.98 -61.37,-64.406 -61.37,-36.211L-61.37,-11.426L-89.935,-11.426L-89.935,21.094L-61.37,21.094L-61.37,99.707C-55.643,100.606 -49.771,101.074 -43.792,101.074C-37.812,101.074 -31.941,100.606 -26.214,99.707L-26.214,21.094L0,21.094Z" style="fill:white;fill-rule:nonzero;"/></g></g></g></svg>